<?xml version="1.0" encoding="UTF-8"?>
<svg width="1049px" height="1040px" viewBox="0 0 1049 1040" version="1.1" xmlns="http://www.w3.org/2000/svg" xmlns:xlink="http://www.w3.org/1999/xlink">
    <title>编组</title>
    <g id="页面-1" stroke="none" stroke-width="1" fill="none" fill-rule="evenodd">
        <g id="about个人简介" transform="translate(-106.000000, -31.000000)" fill="#FFFFFF">
            <g id="编组" transform="translate(630.602882, 551.084004) rotate(3.000000) translate(-630.602882, -551.084004) translate(132.047593, 57.219557)">
                <path d="M989.148459,456.314434 L979.617035,456.66542 L979.999734,466.704407 C980.068861,468.49768 980.481615,469.94095 981.237998,471.033234 C981.993379,472.124536 983.281734,472.638725 985.099056,472.569904 C987.113739,472.497151 988.41612,471.708661 989.003193,470.205419 C989.404928,468.911588 989.568226,467.277586 989.492087,465.300463 L989.148459,456.314434 Z M972.460953,456.928906 L960.93388,457.352645 L961.31658,467.380817 C961.384704,469.172124 961.693268,470.557388 962.239267,471.534643 C963.247109,473.310219 965.08046,474.149833 967.739321,474.052501 C969.987431,473.968933 971.499194,473.033953 972.272608,471.249528 C972.704398,470.25261 972.895747,468.869312 972.84766,467.095702 L972.460953,456.928906 Z M992.909334,478.634982 C991.120063,479.967156 988.944085,480.678959 986.382402,480.773342 C983.742576,480.871658 981.596653,480.31126 979.944633,479.095098 C979.018941,478.415739 978.156364,477.395225 977.359908,476.036506 C976.639592,478.1729 975.430381,479.810834 973.729271,480.947361 C972.031167,482.083887 969.939343,482.698358 967.456805,482.789791 C964.89412,482.883191 962.57488,482.355237 960.493074,481.202981 C959.114554,480.472497 957.943413,479.539484 956.980653,478.403941 C955.87363,477.123874 955.090197,475.59507 954.631359,473.816544 C954.171518,472.038018 953.901024,470.099238 953.820877,468.00217 L953.110579,449.391063 L996.34261,447.80032 L997.104002,467.761298 C997.219213,472.800946 995.820656,476.425835 992.909334,478.634982 L992.909334,478.634982 Z" id="Fill-1"></path>
                <path d="M969.606063,500.221509 L969.069647,511.036152 L986.161589,506.560642 L969.606063,500.221509 Z M996.18196,502.160561 L995.687188,512.144469 L952.18196,524.903194 L952.65591,515.332642 L961.58461,512.995319 L962.356018,497.443675 L953.70792,494.131797 L954.166006,484.903194 L996.18196,502.160561 Z" id="Fill-3"></path>
                <path d="M958.092129,554.682678 C960.425063,557.037348 964.009792,558.550081 968.842299,559.219893 C973.656737,559.888722 977.522542,559.409722 980.441722,557.784862 C983.359897,556.158035 985.063421,553.649928 985.553298,550.262507 C986.043174,546.874103 985.123652,543.988304 982.793729,541.606094 C980.465814,539.223884 976.884097,537.697381 972.050586,537.027568 C967.217075,536.356773 963.343239,536.847575 960.431086,538.502926 C957.518934,540.157293 955.817417,542.679171 955.327541,546.067574 C954.838669,549.456962 955.760198,552.328991 958.092129,554.682678 M950.797191,559.126454 C947.905115,555.567892 946.882198,550.865436 947.727435,545.013186 C948.573676,539.161919 950.889545,534.920758 954.676046,532.292655 C959.371027,528.713438 965.572778,527.457417 973.279291,528.527543 C981.141401,529.618324 986.742853,532.511008 990.084651,537.205595 C992.975723,540.76219 993.999645,545.464645 993.153404,551.316896 C992.308167,557.168163 989.991294,561.409323 986.205796,564.03841 C981.667416,567.620578 975.468676,568.866763 967.606567,567.776966 C959.899049,566.70684 954.296593,563.823008 950.797191,559.126454" id="Fill-5"></path>
                <polygon id="Fill-7" points="954.033811 568.231648 976.414227 595.264516 981.037958 574.918899 988.467212 576.60615 981.433481 607.550373 974.402739 605.953759 951.686577 578.560333 946.867574 599.756548 939.467212 598.075273 946.632452 566.550373"></polygon>
                <polygon id="Fill-9" points="938.373251 601.129067 979.367752 613.948597 976.784341 622.259251 961.153609 617.369399 956.315927 632.931554 971.94666 637.819411 969.363248 646.129067 928.367752 633.309538 930.952158 624.999881 949.250824 630.721497 954.0895 615.161336 935.788845 609.438724"></polygon>
                <path d="M966.480377,654.906422 L963.122295,663.08161 L938.69038,653.167525 C935.958145,652.058706 933.833847,651.561172 932.319476,651.675912 C929.691715,651.743173 927.70771,653.407884 926.368457,656.669057 C925.036169,659.914404 925.285911,662.474282 927.115692,664.350668 C928.11665,665.486193 929.984241,666.607871 932.716476,667.71669 L957.149386,677.631764 L953.792298,685.806952 L929.340484,675.884954 C925.112783,674.169796 922.080061,672.198453 920.24431,669.972903 C916.897172,665.856129 916.589721,660.469308 919.323946,653.811451 C922.058172,647.152604 926.073941,643.510614 931.369263,642.879547 C934.246767,642.565992 937.799867,643.268277 942.028563,644.984423 L966.480377,654.906422 Z" id="Fill-11"></path>
                <polygon id="Fill-13" points="930.632324 681.273872 923.744085 695.798038 916.632324 692.322204 923.520564 677.798038"></polygon>
                <path d="M935.36069,712.689979 C936.792104,717.338261 936.249154,721.923125 933.730852,726.447545 C930.360612,732.499922 925.842279,735.773834 920.17684,736.26829 C917.00996,736.520968 914.234991,736.052275 911.848971,734.863203 L916.080034,727.265032 C918.132386,727.781287 919.825403,727.91704 921.155138,727.669316 C923.525362,727.223414 925.44938,725.670684 926.930154,723.012117 C928.437581,720.304996 928.485953,717.529503 927.07527,714.688612 C925.665573,711.844747 922.872835,709.253561 918.699029,706.91208 C914.525222,704.569607 910.939776,703.640149 907.943678,704.122714 C904.944619,704.60627 902.740241,706.119365 901.323635,708.661997 C899.873464,711.266066 899.658258,713.754199 900.681966,716.124416 C901.218993,717.417532 902.30983,718.853337 903.950526,720.427867 L899.747105,727.977484 C896.053069,725.050385 893.679883,721.535686 892.629521,717.433387 C891.578172,713.331088 892.216879,709.189153 894.544654,705.007582 C897.426239,699.833136 901.407545,696.728667 906.490546,695.693183 C911.590329,694.668599 917.143229,695.839836 923.152207,699.210855 C929.648854,702.856352 933.718019,707.348073 935.36069,712.689979" id="Fill-15"></path>
                <path d="M891.953946,742.847237 L886.004777,751.796272 L902.825408,756.928924 L891.953946,742.847237 Z M913.588362,758.421768 L908.096898,766.684576 L864.588362,754.782962 L869.851961,746.866276 L878.638107,749.546974 L887.191455,736.679225 L881.512568,729.323359 L886.588745,721.684576 L913.588362,758.421768 Z" id="Fill-17"></path>
                <path d="M884.273256,785.690178 L875.265908,778.464406 L869.339838,785.760591 C868.162407,787.209514 867.461935,788.443231 867.238423,789.46075 C866.833307,791.252813 867.571696,792.90405 869.452592,794.413469 C871.485157,796.041895 873.353082,796.515944 875.058361,795.835615 C876.018267,795.455781 877.063985,794.569171 878.195516,793.175785 L884.273256,785.690178 Z M877.853263,803.681221 C876.353535,804.450806 874.749036,804.83659 873.043757,804.839651 C871.636826,804.844524 870.254841,804.634277 868.8988,804.207831 C867.540763,803.780394 866.204678,803.038577 864.884558,801.980397 C863.292033,800.704036 862.041761,799.057758 861.13474,797.04553 C860.226721,795.033302 860.180821,792.876281 860.999036,790.575459 C859.161046,791.573143 857.415854,791.923225 855.765455,791.629672 C854.11306,791.335127 852.113423,790.245211 849.761554,788.358934 L847.509468,786.552987 C845.977809,785.324229 844.89118,784.550676 844.248582,784.231338 C843.238786,783.71762 842.261917,783.623405 841.319972,783.950677 L840.477809,783.275307 L846.555549,775.791684 C847.465563,776.182427 848.183996,776.516641 848.710846,776.792343 C849.793484,777.370524 850.834214,778.047878 851.832037,778.824405 L854.984159,781.279938 C857.145444,782.966877 858.860701,783.753322 860.132926,783.639273 C861.403154,783.522248 862.805095,782.521589 864.337751,780.633328 L869.714021,774.012513 L856.565709,763.465425 L861.94597,756.839651 L895.477809,783.735471 L882.875306,799.256104 C881.029333,801.436927 879.353989,802.912627 877.853263,803.681221 L877.853263,803.681221 Z" id="Fill-19"></path>
                <path d="M856.683466,818.062408 L848.282749,810.074548 L841.731932,816.878321 C840.431189,818.228718 839.62549,819.403843 839.313832,820.402699 C838.756657,822.162398 839.354919,823.876287 841.108618,825.544367 C843.003614,827.344897 844.833474,827.977273 846.597194,827.4405 C847.590288,827.139748 848.712655,826.340066 849.964295,825.041453 L856.683466,818.062408 Z M848.727687,835.523963 C847.159379,836.16829 845.521926,836.420245 843.815326,836.278832 C842.406355,836.165303 841.042478,835.839654 839.72069,835.298897 C838.399905,834.757145 837.123212,833.90269 835.893619,832.732545 C834.408487,831.320403 833.297143,829.569667 832.560589,827.479339 C831.823034,825.389011 831.961325,823.227977 832.974462,820.992253 C831.051406,821.836749 829.274659,822.042894 827.647226,821.609691 C826.019794,821.174497 824.110768,819.916715 821.919145,817.833358 L819.818715,815.835647 C818.389701,814.476286 817.368548,813.610877 816.752248,813.237426 C815.784206,812.638909 814.817167,812.462641 813.846119,812.711608 L813.061464,811.964706 L819.780635,804.986657 C820.657484,805.453719 821.346939,805.849079 821.851002,806.170744 C822.885183,806.838972 823.87026,807.604795 824.802226,808.465225 L827.747438,811.186933 C829.767699,813.059166 831.416175,813.987315 832.697879,813.979348 C833.979582,813.971381 835.467721,813.086054 837.163297,811.326355 L843.106832,805.152967 L830.846975,793.494337 L836.793517,787.316965 L868.061464,817.048614 L854.128077,831.518581 C852.095791,833.546169 850.294993,834.881628 848.727687,835.523963 L848.727687,835.523963 Z" id="Fill-21"></path>
                <polygon id="Fill-23" points="804.187243 821.176886 810.599633 815.308737 840.187243 846.440587 833.774853 852.308737"></polygon>
                <polygon id="Fill-25" points="798.59097 871.565452 815.59726 857.25426 809.72642 850.212372 794.115054 863.348413 789.31309 857.58787 804.924457 844.451829 797.815238 835.92322 780.024242 850.894621 775.054768 844.932709 799.407583 824.4382 827.054768 857.6039 803.485663 877.4382"></polygon>
                <polygon id="Fill-27" points="777.12205 853.899745 770.309694 859.007594 765.12205 852.116427 771.933421 847.007594"></polygon>
                <path d="M760.739386,876.295018 L751.830639,882.291298 L765.854595,893.147668 L760.739386,876.295018 Z M775.483341,898.45908 L767.259497,903.993198 L730.483341,877.1681 L738.365235,871.8626 L745.689581,877.535662 L758.500166,868.914224 L755.827742,860.109498 L763.429859,854.993198 L775.483341,898.45908 Z" id="Fill-29"></path>
                <path d="M737.510416,913.380508 L731.870911,903.399855 L723.588483,907.911563 C721.94442,908.809772 720.824334,909.683387 720.229225,910.534374 C719.172257,912.033685 719.232368,913.824202 720.409561,915.907891 C721.68093,918.157842 723.240835,919.288228 725.085271,919.294173 C726.123204,919.29905 727.432644,918.872081 729.015592,918.009288 L737.510416,913.380508 Z M724.708569,927.542312 C723.019423,927.691849 721.381372,927.452786 719.793414,926.824138 C718.482973,926.308626 717.276726,925.602258 716.176677,924.707983 C715.075626,923.812725 714.112832,922.635116 713.286292,921.174173 C712.289436,919.409235 711.751433,917.433765 711.670282,915.247761 C711.589131,913.060773 712.365577,911.061691 713.998619,909.247563 C711.91073,909.484659 710.154459,909.161973 708.729805,908.27852 C707.305151,907.396051 705.856453,905.653741 704.385713,903.048638 L702.975085,900.553721 C702.016299,898.855682 701.297961,897.743004 700.821073,897.211752 C700.077688,896.363716 699.205063,895.918054 698.204198,895.867881 L697.677217,894.936222 L706.173042,890.307442 C706.871343,891.003972 707.412351,891.576544 707.798069,892.026141 C708.586538,892.958783 709.296861,893.967179 709.931042,895.049359 L711.932771,898.476919 C713.302322,900.827217 714.599739,902.185845 715.826023,902.550835 C717.052308,902.914841 718.738448,902.512467 720.880438,901.346664 L728.396439,897.25012 L720.166108,882.683974 L727.686116,878.585462 L748.677217,915.734742 L731.061403,925.332696 C728.514659,926.65394 726.397716,927.389823 724.708569,927.542312 L724.708569,927.542312 Z" id="Fill-31"></path>
                <polygon id="Fill-33" points="683.217219 948.076481 680.073989 941.153021 691.346433 935.92805 676.737511 903.751394 684.66066 900.076481 699.269582 932.25513 710.594281 927.007246 713.737511 933.931703"></polygon>
                <path d="M551.551868,976.315615 L550.502548,966.910598 L540.550806,968.033793 C538.773286,968.234576 537.369252,968.748463 536.339694,969.579428 C535.309147,970.408405 534.894162,971.720456 535.09375,973.514585 C535.314087,975.501547 536.194449,976.731097 537.731871,977.202243 C539.045991,977.502424 540.684194,977.542183 542.644506,977.32152 L551.551868,976.315615 Z M549.717041,959.850374 L548.447383,948.476288 L538.50651,949.599483 C536.730966,949.798278 535.377323,950.204815 534.444594,950.820087 C532.753035,951.946264 532.054477,953.823888 532.346943,956.447989 C532.593958,958.664559 533.633397,960.091911 535.46526,960.725075 C536.487903,961.079925 537.878103,961.165407 539.636851,960.987485 L549.717041,959.850374 Z M529.637681,981.689058 C528.183257,980.017187 527.314752,977.917907 527.034143,975.391215 C526.742665,972.786 527.141841,970.621116 528.229696,968.896565 C528.836365,967.928431 529.787867,967.002044 531.081237,966.113428 C528.903553,965.557794 527.186304,964.483304 525.931468,962.884988 C524.676631,961.28866 523.912861,959.264922 523.640156,956.815761 C523.357571,954.287081 523.712285,951.951234 524.704297,949.809212 C525.328751,948.389812 526.171566,947.162249 527.229779,946.123543 C528.421379,944.93574 529.883708,944.046129 531.616766,943.459683 C533.3518,942.873236 535.258756,942.462723 537.338623,942.228144 L555.78867,940.146755 L560.54618,982.802313 L540.756323,985.035781 C535.75575,985.52283 532.049536,984.406593 529.637681,981.689058 L529.637681,981.689058 Z" id="Fill-35"></path>
                <path d="M503.909215,960.81246 L493.364431,961.060106 L498.96323,977.63077 L503.909215,960.81246 Z M503.970448,987.219192 L494.235509,987.448167 L478.658817,945.365047 L487.988833,945.1459 L490.913166,953.802701 L506.076047,953.445973 L508.66064,944.659452 L517.658817,944.448167 L503.970448,987.219192 Z" id="Fill-37"></path>
                <path d="M447.127272,953.635981 C444.930351,956.088867 443.6647,959.702766 443.335312,964.477678 C443.006922,969.230944 443.763517,972.974719 445.603102,975.709003 C447.442686,978.442303 450.081787,979.925055 453.517408,980.154306 C456.956024,980.385524 459.787767,979.275675 462.012636,976.823773 C464.239502,974.372854 465.517129,970.760923 465.846518,965.986995 C466.175906,961.212083 465.406335,957.463388 463.538802,954.73796 C461.670272,952.012531 459.017197,950.534699 455.579579,950.302496 C452.14296,950.072262 449.325191,951.184079 447.127272,953.635981 M442.149514,946.83028 C445.513268,943.742773 450.162636,942.398753 456.097618,942.797236 C462.033597,943.195719 466.455388,945.147795 469.363987,948.656416 C473.293692,952.984633 474.993536,958.954011 474.46851,966.566518 C473.931507,974.329562 471.426159,980.017542 466.94947,983.626522 C463.585715,986.715013 458.935349,988.059033 453.000368,987.66055 C447.065387,987.262067 442.643596,985.309007 439.733998,981.800386 C435.814275,977.62861 434.121418,971.658249 434.658421,963.895204 C435.183447,956.282697 437.68081,950.593733 442.149514,946.83028" id="Fill-39"></path>
                <polygon id="Fill-41" points="432.098556 949.139634 407.005001 973.218861 427.350538 976.355888 426.194248 983.831924 395.249891 979.060596 396.343758 971.98621 421.769238 947.547872 400.572586 944.279271 401.723921 936.831924 433.249891 941.692287"></polygon>
                <polygon id="Fill-43" points="396.778609 935.529561 386.860712 976.834395 378.576444 974.848387 382.357408 959.099019 366.844826 955.377836 363.061893 971.12622 354.778609 969.138245 364.696506 927.834395 372.980774 929.820403 368.553247 948.260078 384.066814 951.981261 388.494341 933.541585"></polygon>
                <path d="M344.006308,966.049636 L335.585583,963.257687 L344.09462,938.474339 C345.045978,935.703101 345.419296,933.570924 345.214573,932.08274 C344.989779,929.489019 343.197453,927.634952 339.838596,926.521526 C336.4968,925.414017 333.937766,925.824279 332.159489,927.754283 C331.078674,928.816427 330.061082,930.734597 329.110727,933.506821 L320.602694,958.290169 L312.181969,955.498221 L320.696023,930.695148 C322.16822,926.40614 323.968575,923.282827 326.097089,921.325208 C330.035993,917.752185 335.433044,917.102276 342.291254,919.37548 C349.148459,921.64967 353.05224,925.383445 354.000587,930.575818 C354.487305,933.401297 353.994566,936.957554 352.521366,941.246563 L344.006308,966.049636 Z" id="Fill-45"></path>
                <polygon id="Fill-47" points="313.386373 932.35585 299.299666 926.483624 302.213924 919.35585 316.299666 925.228075"></polygon>
                <path d="M280.887635,937.897185 C276.381215,939.571258 271.842359,939.279943 267.270087,937.021274 C261.15079,934.000857 257.713723,929.687241 256.955937,924.084362 C256.556895,920.949782 256.886154,918.165566 257.94273,915.729745 L265.623794,919.52372 C265.212958,921.592445 265.159883,923.280296 265.467519,924.590226 C266.019887,926.92074 267.639643,928.749327 270.326787,930.076972 C273.063074,931.428237 275.797395,931.326868 278.527784,929.770895 C281.258174,928.214923 283.676014,925.299812 285.781303,921.024579 C287.888559,916.749345 288.631602,913.135474 288.014365,910.183949 C287.395162,907.230455 285.801944,905.119411 283.232743,903.850816 C280.597691,902.549744 278.139554,902.47101 275.856366,903.6156 C274.608132,904.220864 273.248834,905.3812 271.775525,907.096608 L264.14557,903.329206 C266.850405,899.498818 270.196066,896.950802 274.183536,895.68516 C278.171006,894.416565 282.278384,894.827948 286.505672,896.915372 C291.736462,899.498818 294.981871,903.288856 296.242883,908.283517 C297.495049,913.295894 296.605559,918.880073 293.573431,925.034086 C290.294604,931.687074 286.067316,935.975101 280.887635,937.897185" id="Fill-49"></path>
                <path d="M247.08523,895.256656 L238.122917,889.747115 L233.794858,906.750155 L247.08523,895.256656 Z M232.770931,917.545344 L224.4978,912.458931 L234.349156,868.545344 L242.279666,873.4197 L240.018166,882.301443 L252.905859,890.222518 L259.849855,884.218834 L267.4978,888.919599 L232.770931,917.545344 Z" id="Fill-51"></path>
                <path d="M202.590967,888.44388 L209.435331,879.148388 L202.053884,873.517426 C200.588219,872.400044 199.34978,871.748238 198.340537,871.564011 C196.559114,871.232601 194.953767,872.034593 193.525481,873.975993 C191.981122,876.073586 191.571916,877.958917 192.296879,879.637993 C192.70215,880.581159 193.609092,881.591408 195.019673,882.666738 L202.590967,888.44388 Z M184.646891,882.746837 C183.841267,881.276018 183.41042,879.689056 183.354351,877.984949 C183.306151,876.577209 183.470424,875.188492 183.847169,873.814794 C184.225881,872.441095 184.915433,871.074405 185.918774,869.712722 C187.127702,868.068689 188.712392,866.754064 190.667924,865.765842 C192.624441,864.77762 194.749164,864.646458 197.045046,865.371354 C196.004325,863.574132 195.602004,861.843993 195.841036,860.180937 C196.080067,858.518882 197.092262,856.474354 198.878603,854.048355 L200.590186,851.725483 C201.752882,850.144528 202.482764,849.026146 202.775897,848.371336 C203.251992,847.341062 203.313963,846.362853 202.96181,845.433704 L203.601195,844.565631 L211.173473,850.340771 C210.815417,851.265915 210.509497,851.99782 210.251776,852.535485 C209.715676,853.640851 209.082194,854.709172 208.347394,855.737443 L206.023969,858.98646 C204.426492,861.215216 203.705463,862.961375 203.858916,864.226939 C204.012368,865.492504 205.044236,866.855189 206.95452,868.31199 L213.652317,873.421307 L223.642451,859.855535 L230.34615,864.969858 L204.869143,899.565631 L189.168814,887.588823 C186.959495,885.830649 185.452515,884.215653 184.646891,882.746837 L184.646891,882.746837 Z" id="Fill-53"></path>
                <path d="M168.11263,861.145505 L175.779754,852.678974 L168.945842,846.472417 C167.588306,845.239972 166.414727,844.486319 165.42707,844.212442 C163.683916,843.720843 162.01159,844.357262 160.411075,846.125638 C158.681693,848.034893 158.101297,849.845631 158.668905,851.557853 C158.986647,852.520362 159.797233,853.594195 161.102631,854.779351 L168.11263,861.145505 Z M150.767655,853.887775 C150.100692,852.372587 149.816396,850.7776 149.917719,849.102815 C149.996417,847.719639 150.287599,846.372915 150.79028,845.063627 C151.291978,843.754339 152.104532,842.478547 153.226958,841.238221 C154.582526,839.740766 156.280429,838.599941 158.317716,837.814763 C160.356971,837.029584 162.48476,837.099531 164.704035,838.022633 C163.831474,836.165592 163.590463,834.434652 163.980016,832.826858 C164.370554,831.22005 165.565775,829.31178 167.565681,827.103034 L169.483937,824.986893 C170.787368,823.546578 171.615662,822.520033 171.967834,821.905289 C172.536425,820.940809 172.686934,819.987167 172.421329,819.045347 L173.137479,818.253272 L180.147477,824.619426 C179.707754,825.492284 179.334923,826.179932 179.030953,826.683352 C178.394486,827.715808 177.665548,828.701961 176.840206,829.640826 L174.228426,832.608151 C172.435101,834.641537 171.556638,836.285782 171.593036,837.538916 C171.631401,838.795005 172.533474,840.224483 174.301221,841.830306 L180.503584,847.461525 L191.693415,835.103581 L197.897745,840.738741 L169.36294,872.253272 L154.826489,859.054979 C152.788218,857.125036 151.435601,855.402963 150.767655,853.887775 L150.767655,853.887775 Z" id="Fill-55"></path>
                <polygon id="Fill-57" points="163.811984 807.407275 169.828155 813.579838 138.846324 843.407275 132.828155 837.232726"></polygon>
                <polygon id="Fill-59" points="111.379641 801.259434 125.550334 817.987872 132.42202 812.030756 119.414865 796.675808 125.03518 791.805705 138.043322 807.159655 146.363756 799.948828 131.539744 782.449798 137.357436 777.407011 157.649782 801.361248 125.288809 829.407011 105.649782 806.227358"></polygon>
                <polygon id="Fill-61" points="127.136302 778.554167 122.030108 771.787957 128.924901 766.554167 134.030108 773.321367"></polygon>
                <path d="M104.766804,759.942484 L99.1033288,750.936004 L87.7803212,764.524254 L104.766804,759.942484 Z M82.1424727,773.918884 L76.913664,765.603671 L104.966888,729.918884 L109.977871,737.886963 L104.063058,744.985705 L112.206398,757.935709 L121.081082,755.541784 L125.913664,763.226753 L82.1424727,773.918884 Z" id="Fill-63"></path>
                <path d="M67.3052718,736.140347 L77.3992821,730.698332 L73.0254742,722.489629 C72.1568326,720.859011 71.3010232,719.745781 70.4590331,719.150933 C68.9764198,718.092322 67.1818852,718.133038 65.0744422,719.269108 C62.7982064,720.496541 61.6413337,722.019908 61.6028371,723.83623 C61.5781598,724.858097 61.9838549,726.153058 62.8189353,727.72012 L67.3052718,736.140347 Z M53.3497547,723.374453 C53.2283423,721.709077 53.4968315,720.09832 54.1552224,718.540196 C54.6951621,717.254172 55.4226495,716.074407 56.3376844,715.001893 C57.2527194,713.927393 58.4490758,712.99093 59.9277407,712.194489 C61.7124044,711.233199 63.7004092,710.723755 65.8897808,710.670129 C68.0811267,710.613524 70.0701186,711.401027 71.8557693,713.029659 C71.6563766,710.970036 72.0107429,709.24309 72.9188682,707.850808 C73.8289677,706.45654 75.5998121,705.050355 78.2333755,703.629274 L80.7563845,702.26877 C82.4729388,701.342238 83.6021729,700.648083 84.1421126,700.18432 C85.0038446,699.460373 85.4667911,698.606334 85.5319392,697.622204 L86.4755999,697.112759 L90.9619363,705.532986 C90.2522167,706.212245 89.6688449,706.739564 89.2108338,707.112958 C88.2632248,707.879607 87.2425709,708.568796 86.1459109,709.180526 L82.6812154,711.114031 C80.3013348,712.436798 78.9184179,713.698988 78.5314775,714.903579 C78.1445372,716.108171 78.5176582,717.772554 79.6488665,719.895734 L83.6169793,727.343747 L98.3493384,719.3992 L102.3214,726.852178 L64.7516629,747.112759 L55.449301,729.65561 C54.1710159,727.133217 53.4711671,725.037842 53.3497547,723.374453 L53.3497547,723.374453 Z" id="Fill-65"></path>
                <polygon id="Fill-67" points="32.725709 679.675549 39.7413548 676.70749 44.6627929 687.971372 77.2673202 674.175795 80.725709 682.094223 48.123179 695.890783 53.0675865 707.206753 46.0529393 710.175795"></polygon>
                <path d="M27.4707136,557.065807 L38.9350535,555.965781 L37.9658557,545.887542 C37.7938206,544.087499 37.4067416,542.710467 36.8046187,541.756444 C35.6963925,540.027403 33.8210097,539.290386 31.1754698,539.544392 C28.9400135,539.758397 27.4887173,540.787421 26.8215811,542.630465 C26.4495052,543.659489 26.3384825,545.065522 26.4905135,546.849565 L27.4707136,557.065807 Z M10.8733261,558.659845 L20.3542611,557.749823 L19.3850633,547.660584 C19.2110278,545.857541 18.7159268,544.428507 17.89876,543.372482 C17.0815932,542.316457 15.7683251,541.875447 13.9599561,542.048451 C11.9565472,542.240455 10.7052918,543.111476 10.2061899,544.659513 C9.88212377,545.984544 9.8161103,547.640584 10.0071493,549.628631 L10.8733261,558.659845 Z M5.82129495,536.396317 C7.52864342,534.951283 9.65507743,534.105263 12.2015972,533.862257 C14.8261328,533.609251 16.9985762,534.047261 18.7159268,535.176288 C19.6801235,535.807303 20.5983109,536.784326 21.470489,538.107357 C22.0646102,535.913305 23.1748368,534.192265 24.802169,532.947235 C26.4295011,531.704206 28.4779192,530.963188 30.9474232,530.726182 C33.4949432,530.481177 35.8384215,530.878186 37.9788583,531.917211 C39.3961476,532.572226 40.6193973,533.444247 41.6446065,534.531273 C42.822847,535.756302 43.6920244,537.250337 44.2531389,539.014379 C44.8162538,540.778421 45.1983318,542.714467 45.4013733,544.824517 L47.1967397,563.52796 L4.20196445,567.656058 L2.27557127,547.594582 C1.86648778,542.525462 3.04972928,538.793374 5.82129495,536.396317 L5.82129495,536.396317 Z" id="Fill-69"></path>
                <path d="M26.7299714,512.703245 L26.6852707,502.158435 L9.82817409,507.429852 L26.7299714,512.703245 Z M0.0417205692,512.247093 L-5.68434189e-14,502.513878 L42.8341111,487.765954 L42.8738449,497.095346 L34.0678248,499.85003 L34.1323923,515.012637 L42.9622528,517.766333 L43,526.765954 L0.0417205692,512.247093 Z" id="Fill-71"></path>
                <path d="M34.9098193,455.455517 C32.507241,453.208479 28.9225508,451.866235 24.1596827,451.431775 C19.4155002,450.99831 15.6577222,451.668934 12.8863486,453.444642 C10.114975,455.220351 8.57783626,457.821135 8.2729655,461.246996 C7.96711128,464.671861 9.01547333,467.52276 11.4170682,469.799692 C13.8186631,472.074631 17.4004028,473.430826 22.1632709,473.865286 C26.928106,474.300743 30.6908013,473.616169 33.4552907,471.811563 C36.2197801,470.007954 37.7549519,467.392222 38.0578558,463.966361 C38.36371,460.541496 37.3133811,457.703552 34.9098193,455.455517 M41.8185842,450.638585 C44.8318875,454.064446 46.0749735,458.735894 45.5478421,464.650935 C45.0216941,470.56498 42.9751262,474.936491 39.4051879,477.761481 C34.9973467,481.586926 28.994343,483.151383 21.4001106,482.457841 C13.6524593,481.749351 8.02218471,479.121662 4.51125364,474.574772 C1.49893379,471.147915 0.256831284,466.477463 0.782979217,460.562422 C1.30912715,454.647381 3.35667855,450.276867 6.92563341,447.451876 C11.1800558,443.63241 17.1810926,442.075925 24.9297273,442.783418 C32.5239597,443.476961 38.1542343,446.095682 41.8185842,450.638585" id="Fill-73"></path>
                <polygon id="Fill-75" points="39.4627931 440.951393 15.7429137 415.211652 12.1068376 435.557575 4.58801933 434.223791 10.1195287 403.279209 17.2348934 404.541381 41.3102912 430.622276 45.0991605 409.424959 52.5880193 410.752775 46.9516519 442.279209"></polygon>
                <polygon id="Fill-77" points="54.071975 405.755591 12.5841779 394.835114 14.7822858 386.550238 30.6013096 390.715934 34.7172966 375.203194 18.8982728 371.038488 21.0963807 362.755591 62.5841779 373.676069 60.3860699 381.959955 41.8671097 377.085626 37.7501291 392.596386 56.270083 397.471705"></polygon>
                <path d="M24.3413984,351.326184 L27.362063,343.066417 L52.3748098,352.011605 C55.1718328,353.012458 57.3310262,353.428075 58.8493815,353.257464 C61.4909586,353.091812 63.4144761,351.361893 64.6189309,348.065724 C65.8173685,344.7884 65.4553301,342.251054 63.5318126,340.451701 C62.4737777,339.360582 60.5472517,338.313108 57.7492258,337.313247 L32.7354761,328.367068 L35.7561406,320.107301 L60.788945,329.060424 C65.1173606,330.606836 68.2543588,332.454794 70.1989367,334.60033 C73.7461114,338.571009 74.2906734,343.91749 71.830617,350.644731 C69.3705605,357.372964 65.4904307,361.147242 60.1902276,361.973516 C57.3089629,362.392109 53.7036213,361.828695 49.3742028,360.279307 L24.3413984,351.326184 Z" id="Fill-79"></path>
                <polygon id="Fill-81" points="59.1130031 322.967759 65.1644628 308.196774 72.1130031 311.426811 66.0605849 326.196774"></polygon>
                <path d="M54.4731189,289.945696 C52.875395,285.316135 53.2469816,280.686574 55.5888644,276.05902 C58.7232026,269.866869 63.1024053,266.434591 68.727458,265.762186 C71.8716526,265.410929 74.654117,265.797311 77.0748511,266.919325 L73.1401725,274.693134 C71.0762404,274.235497 69.3858662,274.153202 68.0700355,274.442236 C65.7261814,274.964103 63.866277,276.585905 62.4903222,279.30463 C61.0887408,282.075542 61.1429511,284.86753 62.6519674,287.6826 C64.1619693,290.498674 67.0380695,293.019692 71.2822393,295.246658 C75.5254235,297.472621 79.1318837,298.296568 82.0976773,297.718501 C85.0654421,297.141436 87.2072398,295.55175 88.5230705,292.951448 C89.8724129,290.285913 89.9946324,287.775934 88.8887433,285.424522 C88.3052438,284.140931 87.1668286,282.730887 85.4744831,281.196397 L89.383535,273.473772 C93.1703675,276.302892 95.6630534,279.765278 96.8606071,283.858922 C98.0591465,287.953569 97.5751968,292.139543 95.4097437,296.416844 C92.7307716,301.710782 88.8788869,304.956392 83.8560607,306.154679 C78.8135217,307.342929 73.2387366,306.334321 67.1297341,303.128855 C60.5249542,299.663458 56.3054254,295.269741 54.4731189,289.945696" id="Fill-83"></path>
                <path d="M98.0257344,256.469923 L103.658554,247.440487 L86.7068074,242.811751 L98.0257344,256.469923 Z M75.920768,241.624562 L81.1203693,233.290236 L124.920768,243.898924 L119.937282,251.887194 L111.08148,249.46781 L102.982576,262.450875 L108.896641,269.58501 L104.090785,277.290236 L75.920768,241.624562 Z" id="Fill-85"></path>
                <path d="M104.093935,212.709733 L113.329674,219.762776 L119.021677,212.286711 C120.151869,210.803126 120.812565,209.547091 121.00677,208.518606 C121.353135,206.706226 120.563302,205.065261 118.635269,203.592703 C116.552072,202.001859 114.669087,201.568812 112.986312,202.292561 C112.039314,202.699545 111.02124,203.614756 109.933092,205.042205 L104.093935,212.709733 Z M109.943103,194.472665 C111.41966,193.66371 113.010338,193.236678 114.714134,193.194577 C116.12262,193.156485 117.509082,193.334916 118.879527,193.731875 C120.249972,194.128834 121.610407,194.843561 122.963834,195.877059 C124.594554,197.123069 125.896927,198.747996 126.868952,200.748831 C127.839976,202.75167 127.953095,204.918907 127.209311,207.251544 C129.015215,206.205015 130.748043,205.810061 132.407793,206.067683 C134.067543,206.325306 136.103691,207.37384 138.513231,209.215289 L140.821666,210.976545 C142.392322,212.176445 143.502493,212.928261 144.156182,213.232998 C145.182264,213.728194 146.160296,213.798364 147.091277,213.446514 L147.954187,214.10711 L142.11503,221.773635 C141.194059,221.401737 140.464289,221.083969 139.929725,220.817324 C138.827563,220.261982 137.766444,219.606398 136.744366,218.848567 L133.515962,216.45378 C131.301627,214.808805 129.560791,214.058994 128.294455,214.204345 C127.02812,214.350698 125.657675,215.391213 124.184121,217.324885 L119.018674,224.108277 L132.497888,234.401148 L127.328437,241.189552 L92.9541874,214.940123 L105.062957,199.039701 C106.83983,196.803297 108.466546,195.279615 109.943103,194.472665 L109.943103,194.472665 Z" id="Fill-87"></path>
                <path d="M132.404876,178.866866 L140.854077,186.549068 L147.078403,179.735084 C148.314007,178.381136 149.07074,177.211058 149.347617,176.223866 C149.844223,174.482515 149.210657,172.809008 147.446917,171.205313 C145.540304,169.471827 143.730254,168.887771 142.018736,169.451179 C141.054099,169.765822 139.979104,170.574061 138.788826,171.875895 L132.404876,178.866866 Z M139.705182,161.547744 C141.223575,160.885027 142.819809,160.605782 144.494869,160.709024 C145.877287,160.791618 147.222261,161.085612 148.531764,161.591007 C149.841267,162.096402 151.114313,162.911524 152.351887,164.037355 C153.845647,165.395236 154.982717,167.094307 155.763098,169.133586 C156.543479,171.172865 156.468594,173.300637 155.539428,175.516903 C157.398745,174.648685 159.13194,174.41172 160.738027,174.805024 C162.344114,175.200294 164.248756,176.397903 166.454909,178.403751 L168.56647,180.324056 C170.004066,181.63179 171.028808,182.460678 171.641683,182.815634 C172.606321,183.384941 173.559135,183.538329 174.50308,183.274816 L175.291344,183.993578 L168.908379,190.983566 C168.035377,190.542082 167.348603,190.168444 166.84707,189.863634 C165.814445,189.225499 164.8301,188.492971 163.893052,187.665067 L160.932137,185.048615 C158.903343,183.251218 157.261784,182.370218 156.006474,182.403648 C154.75215,182.438063 153.319481,183.335778 151.709452,185.099744 L146.060558,191.284443 L158.393928,202.499494 L152.742078,208.688126 L121.291344,180.089057 L134.529246,165.592871 C136.463448,163.560475 138.18876,162.211443 139.705182,161.547744 L139.705182,161.547744 Z" id="Fill-89"></path>
                <polygon id="Fill-91" points="186.085005 173.58309 179.932498 179.619906 150.085005 148.657722 156.238504 142.619906"></polygon>
                <polygon id="Fill-93" points="191.103507 121.19561 174.492133 135.479588 180.483431 142.317925 195.731289 129.206093 200.632173 134.799211 185.382321 147.911043 192.636466 156.191109 210.015317 141.250453 215.08664 147.040081 191.297868 167.493869 163.08664 135.289003 186.107935 115.493869"></polygon>
                <polygon id="Fill-95" points="213.939483 137.043805 220.640744 131.874195 225.939483 138.702614 219.238223 143.874195"></polygon>
                <path d="M233.049202,114.472598 L241.721266,108.512044 L227.993778,97.6062552 L233.049202,114.472598 Z M218.574766,92.2610161 L226.580582,86.7577508 L262.574766,113.711109 L254.901584,118.986224 L247.731286,113.288389 L235.262487,121.859339 L237.903865,130.670292 L230.503283,135.757751 L218.574766,92.2610161 Z" id="Fill-97"></path>
                <path d="M256.250809,76.4279842 L261.867349,86.3804042 L269.897724,81.8308672 C271.492192,80.9282517 272.575171,80.0502709 273.145678,79.1969248 C274.159803,77.6922371 274.081112,75.9027723 272.908623,73.8245888 C271.640721,71.58086 270.108221,70.458503 268.308174,70.4614533 C267.296016,70.4604738 266.022212,70.8940445 264.487746,71.7631568 L256.250809,76.4279842 Z M268.58064,62.214746 C270.227241,62.0570839 271.828594,62.2886501 273.384701,62.91043 C274.670308,63.4208611 275.854602,64.1204866 276.938564,65.0102921 C278.022527,65.8991122 278.975667,67.0727094 279.797984,68.5300984 C280.790469,70.2900016 281.339336,72.2617632 281.442617,74.4473541 C281.546882,76.6329449 280.812109,78.6342682 279.23928,80.4552654 C281.273432,80.2089184 282.991838,80.5232572 284.391547,81.4002526 C285.791256,82.277248 287.224408,84.0125165 288.69002,86.6090142 L290.093664,89.0971192 C291.049754,90.7890306 291.762888,91.899563 292.234048,92.427731 C292.969805,93.2722086 293.825565,93.7156333 294.802312,93.7589904 L295.328555,94.6891968 L287.091618,99.3540241 C286.401108,98.6603109 285.866995,98.0907565 285.487313,97.6433903 C284.706309,96.7141693 284.001045,95.7090735 283.370536,94.6300735 L281.378681,91.2137329 C280.014383,88.8685092 278.73271,87.5165567 277.532678,87.1578754 C276.331663,86.7991941 274.692932,87.2071448 272.6155,88.3846836 L265.328752,92.511489 L273.52536,107.03611 L266.23271,111.166857 L245.328555,74.1241468 L262.408347,64.451577 C264.877264,63.1183469 266.935023,62.3733935 268.58064,62.214746 L268.58064,62.214746 Z" id="Fill-99"></path>
                <polygon id="Fill-101" points="311.423304 40.5987047 314.600649 47.5168417 303.443453 52.7620565 318.213869 84.9106942 310.371091 88.5987047 295.600676 56.450067 284.3922 61.7192234 281.213869 54.8010864"></polygon>
                <path d="M444.288175,27.8905225 L445.62887,39.2243037 L455.511092,38.0337263 C457.275423,37.8215834 458.619067,37.4062196 459.54399,36.7876349 C461.21691,35.6505889 461.900036,33.7750082 461.591401,31.1599015 C461.328962,28.9482627 460.284124,27.5336466 458.457869,26.9150619 C457.438587,26.5700819 456.055626,26.4927588 454.305056,26.6840839 L444.288175,27.8905225 Z M442.345936,11.481174 L443.454663,20.8531296 L453.347697,19.6625522 C455.114977,19.449418 456.507767,18.9269915 457.527049,18.0913072 C458.546332,17.2576057 458.949327,15.9450957 458.738,14.1577427 C458.504066,12.1780732 457.619443,10.9587475 456.088063,10.4987742 C454.778821,10.2093083 453.149148,10.1805599 451.200029,10.4155032 L442.345936,11.481174 Z M464.107662,5.96645129 C465.565324,7.62294988 466.445032,9.71067343 466.743838,12.2286306 C467.050507,14.8249022 466.669137,16.9869749 465.599726,18.7138573 C465.001131,19.6833699 464.062447,20.614221 462.780727,21.5093845 C464.951002,22.0476722 466.667171,23.1093778 467.927267,24.6935099 C469.18638,26.2766507 469.959934,28.2900251 470.248911,30.7306592 C470.547717,33.2496077 470.210577,35.5811964 469.239458,37.7264166 C468.628085,39.1449979 467.798505,40.3762195 466.752684,41.4180986 C465.576136,42.6136326 464.128303,43.5097875 462.40722,44.1065632 C460.687119,44.7043301 458.79206,45.1266332 456.724008,45.375455 L438.384791,47.5821371 L433.354234,5.07525306 L453.023335,2.70896812 C457.994917,2.18753289 461.689692,3.2740215 464.107662,5.96645129 L464.107662,5.96645129 Z" id="Fill-103"></path>
                <path d="M489.902603,27.499437 L500.447549,27.1718786 L494.729076,10.3201541 L489.902603,27.499437 Z M489.651697,0.583557619 L499.386633,0.28004026 L515.267766,43.061964 L505.937835,43.3534609 L502.950677,34.549454 L487.787687,35.0242634 L485.267766,43.9985605 L476.267766,44.2800403 L489.651697,0.583557619 Z" id="Fill-105"></path>
                <path d="M546.860296,34.0416573 C549.042286,31.5727034 550.27958,27.9504558 550.576171,23.1739305 C550.869766,18.4161019 550.084848,14.6767536 548.225413,11.9558858 C546.364979,9.23600194 543.715633,7.77273593 540.27438,7.56608773 C536.834125,7.3584555 534.009022,8.48911633 531.800069,10.9561021 C529.590117,13.4230879 528.337844,17.0453355 528.043251,21.8218609 C527.747658,26.5993703 528.544559,30.3426547 530.433953,33.0566343 C532.322348,35.7686458 534.987672,37.2279756 538.428926,37.4346238 C541.868182,37.641272 544.679304,36.5106112 546.860296,34.0416573 M551.890358,40.8128297 C548.54697,43.9253451 543.904373,45.3020157 537.964566,44.9448095 C532.02376,44.5885874 527.584883,42.6677433 524.649931,39.179325 C520.688395,34.8780905 518.942803,28.9207183 519.414153,21.3042564 C519.893492,13.5342843 522.36009,7.82882615 526.811949,4.18689777 C530.154339,1.07536642 534.797934,-0.301304153 540.73874,0.0549179689 C546.678547,0.411140091 551.117424,2.33493636 554.053374,5.82237061 C558.004924,9.96812696 559.74053,15.9254991 559.261191,23.6944871 C558.789841,31.3109491 556.332231,37.0173913 551.890358,40.8128297" id="Fill-107"></path>
                <polygon id="Fill-109" points="561.703802 37.7620675 586.800646 13.4130647 566.289906 10.4112689 567.399511 2.89833896 598.598188 7.46508028 597.547455 14.574858 572.118328 39.2863006 593.489212 42.4151986 592.3826 49.898339 560.598188 45.2452079"></polygon>
                <polygon id="Fill-111" points="597.06947 51.4081943 606.742893 9.89586797 615.090823 11.8292214 611.40241 27.6572577 627.033126 31.2782245 630.721539 15.4492013 639.06947 17.3825548 629.395056 58.895868 621.048116 56.9625145 625.366113 38.4303493 609.735398 34.8113564 605.4174 53.3425346"></polygon>
                <path d="M650.345745,19.6558295 L658.618721,22.3923238 L650.458858,47.2696347 C649.54707,50.0515562 649.195928,52.1876216 649.408384,53.6778309 C649.646413,56.2731059 651.415891,58.1158697 654.716819,59.2080973 C658.000043,60.2934121 660.505246,59.8648164 662.233414,57.9193477 C663.284872,56.8458835 664.268462,54.9191782 665.181233,52.1372567 L673.341096,27.2599458 L681.613088,29.9954526 L673.447324,54.8925144 C672.035872,59.1972343 670.292951,62.3376356 668.222494,64.3127307 C664.387476,67.9182669 659.101663,68.6075751 652.365055,66.3796678 C645.627464,64.1537356 641.774742,60.4425318 640.806889,55.2490191 C640.310176,52.424633 640.768529,48.8595863 642.178997,44.5538789 L650.345745,19.6558295 Z" id="Fill-113"></path>
                <polygon id="Fill-115" points="680.413136 54.3744129 694.548412 60.1793333 691.684655 67.3744129 677.548412 61.5685115"></polygon>
                <path d="M712.748476,47.8781475 C717.249422,46.1706621 721.797621,46.4273751 726.394059,48.6512372 C732.544958,51.6265502 736.020097,55.911001 736.820462,61.5045896 C737.243779,64.6343239 736.933675,67.4188235 735.894086,69.8610391 L728.172976,66.1273901 C728.569713,64.055982 728.609091,62.3671845 728.292096,61.061981 C727.72111,58.7377943 726.084939,56.9211321 723.384569,55.6149451 C720.633007,54.2841687 717.896211,54.4071155 715.172214,55.9808348 C712.449201,57.5565213 710.049091,60.4875735 707.970898,64.7759586 C705.892706,69.0643437 705.17602,72.681931 705.815918,75.6267532 C706.456801,78.5735426 708.06836,80.6705236 710.652564,81.9196633 C713.300758,83.2002774 715.763874,83.261259 718.041911,82.100641 C719.287251,81.4859069 720.641867,80.3154532 722.103788,78.5902634 L729.773706,82.3003067 C727.094009,86.1480504 723.761617,88.7191143 719.776527,90.0134984 C715.791438,91.3088661 711.674432,90.9301899 707.425508,88.8755026 C702.167514,86.3329624 698.888282,82.5698061 697.588796,77.5860338 C696.296202,72.5865242 697.14579,66.9988371 700.136575,60.8269067 C703.371507,54.1533533 707.575146,49.8364445 712.748476,47.8781475" id="Fill-117"></path>
                <path d="M746.746595,90.5774422 L755.787103,96.0189283 L760.004359,78.9874122 L746.746595,90.5774422 Z M760.951413,68.1862893 L769.297943,73.2096546 L759.73349,117.186289 L751.734939,112.374943 L753.93847,103.476072 L740.939711,95.6530727 L734.013762,101.707934 L726.297943,97.0652162 L760.951413,68.1862893 Z" id="Fill-119"></path>
                <path d="M791.033186,96.2741241 L784.244204,105.622382 L791.681727,111.198289 C793.159179,112.30586 794.404023,112.94777 795.417245,113.123019 C797.205168,113.443473 798.806808,112.627316 800.224137,110.675548 C801.755797,108.565556 802.151033,106.675876 801.4128,105.003504 C800.999823,104.061168 800.083192,103.058746 798.661921,101.994236 L791.033186,96.2741241 Z M809.054348,101.836012 C809.871431,103.300088 810.315948,104.885336 810.384941,106.588752 C810.444079,107.994746 810.290321,109.38672 809.921698,110.763673 C809.553074,112.139624 808.872007,113.51157 807.877512,114.880511 C806.677021,116.532855 805.100022,117.861739 803.147499,118.864161 C801.195962,119.868585 799.066028,120.015794 796.761637,119.308791 C797.818227,121.098329 798.233175,122.824778 798.005495,124.489138 C797.778802,126.1545 796.779378,128.207411 795.008211,130.645869 L793.310965,132.983184 C792.156799,134.573439 791.434336,135.697033 791.144562,136.352963 C790.67639,137.389433 790.62021,138.367821 790.980948,139.294134 L790.346206,140.167373 L782.716485,134.447261 C783.067368,133.519945 783.369955,132.786906 783.622275,132.24714 C784.151555,131.136565 784.779398,130.064044 785.50876,129.030579 L787.812165,125.761943 C789.395078,123.521766 790.105714,121.769281 789.9421,120.503486 C789.779472,119.239693 788.73471,117.884772 786.81077,116.443728 L780.060227,111.382551 L770.151742,125.028904 L763.397256,119.965723 L788.667687,85.1673727 L804.487949,97.0271921 C806.714475,98.7686618 808.236279,100.371936 809.054348,101.836012 L809.054348,101.836012 Z" id="Fill-121"></path>
                <path d="M825.519134,123.573747 L817.905222,132.092911 L824.796064,138.244985 C826.164381,139.466931 827.344543,140.21034 828.336548,140.478164 C830.086103,140.955717 831.754878,140.30585 833.34386,138.527578 C835.062877,136.606532 835.629315,134.791828 835.0481,133.08642 C834.723014,132.126389 833.902418,131.058048 832.587296,129.883364 L825.519134,123.573747 Z M842.942769,130.697667 C843.622494,132.207131 843.919013,133.799304 843.830353,135.473204 C843.761395,136.855648 843.479654,138.20363 842.986114,139.516164 C842.493559,140.829683 841.689709,142.109723 840.574565,143.358256 C839.228905,144.863781 837.537472,146.017787 835.503221,146.816335 C833.466999,147.617838 831.335222,147.564667 829.106904,146.656822 C829.994488,148.506974 830.249631,150.236013 829.870364,151.844926 C829.491097,153.453839 828.308965,155.369962 826.321999,157.593294 L824.419752,159.72407 C823.124333,161.172486 822.302751,162.204395 821.954023,162.820784 C821.39251,163.789677 821.247699,164.743799 821.521559,165.685122 L820.81031,166.479732 L813.742148,160.170115 C814.176582,159.294764 814.544028,158.604527 814.846456,158.100388 C815.473971,157.06257 816.197042,156.07103 817.017638,155.12577 L819.609462,152.141305 C821.39054,150.096194 822.257436,148.44691 822.211136,147.191486 C822.164836,145.939999 821.249669,144.517185 819.466621,142.925011 L813.215115,137.343048 L802.102093,149.779137 L795.845661,144.192251 L824.184311,112.479732 L838.838802,125.563719 C840.894726,127.476887 842.263043,129.188203 842.942769,130.697667 L842.942769,130.697667 Z" id="Fill-123"></path>
                <polygon id="Fill-125" points="831.060441 178.272023 824.966217 172.175734 855.872997 142.272023 861.966217 148.368311"></polygon>
                <polygon id="Fill-127" points="883.394909 183.264996 869.090811 166.67665 862.258737 172.674083 875.389592 187.900327 869.799893 192.805686 856.670026 177.579442 848.397075 184.840331 863.361864 202.194921 857.576624 207.273657 837.092254 183.516093 869.267588 155.273657 889.092254 178.26398"></polygon>
                <polygon id="Fill-129" points="867.560478 206.126501 872.711928 212.848874 865.862392 218.126501 860.711928 211.406105"></polygon>
                <path d="M890.064452,224.250455 L896.033268,232.914111 L906.926876,219.18231 L890.064452,224.250455 Z M912.265524,209.763154 L917.776036,217.760829 L890.85068,253.763154 L885.56932,246.097978 L891.261573,238.924664 L882.678252,226.469736 L873.869729,229.116937 L868.776036,221.724252 L912.265524,209.763154 Z" id="Fill-131"></path>
                <path d="M928.343299,248.470829 L918.296795,253.972709 L922.729134,262.120601 C923.609091,263.740082 924.472278,264.841844 925.31968,265.429847 C926.80732,266.473204 928.600775,266.42074 930.698072,265.272452 C932.965046,264.031114 934.109385,262.503693 934.134048,260.693161 C934.151804,259.673561 933.736488,258.385697 932.890072,256.829569 L928.343299,248.470829 Z M942.385124,261.092092 C942.518301,262.751169 942.261812,264.358772 941.616641,265.914899 C941.086892,267.199793 940.367734,268.381737 939.462128,269.459742 C938.555535,270.535766 937.365818,271.477164 935.894948,272.283935 C934.118264,273.25701 932.136387,273.777699 929.947346,273.849961 C927.758305,273.921235 925.765578,273.15208 923.96719,271.542498 C924.182247,273.592587 923.842891,275.316998 922.943204,276.711771 C922.044504,278.107534 920.285576,279.523096 917.664449,280.959445 L915.152823,282.33442 C913.44322,283.269878 912.321571,283.96974 911.785902,284.437964 C910.930608,285.164553 910.473859,286.019829 910.414669,287.002803 L909.476508,287.515572 L904.930721,279.157821 C905.634095,278.474788 906.21317,277.9442 906.66696,277.570017 C907.608079,276.797893 908.62516,276.103971 909.715241,275.485281 L913.165028,273.533193 C915.532625,272.195834 916.904845,270.925788 917.282674,269.724046 C917.660503,268.520324 917.274782,266.864216 916.12847,264.755723 L912.107501,257.361147 L897.444182,265.39223 L893.419266,257.991716 L930.814479,237.515572 L940.240476,254.845804 C941.535749,257.351248 942.251947,259.433014 942.385124,261.092092 L942.385124,261.092092 Z" id="Fill-133"></path>
                <polygon id="Fill-135" points="963.987418 304.447001 956.99736 307.531338 951.989914 296.064189 919.505408 310.400886 915.987418 302.341261 948.470926 288.003561 943.442516 276.486227 950.431576 273.400886"></polygon>
            </g>
        </g>
    </g>
</svg>